<svg width="751" height="1080" viewBox="0 0 751 1080" fill="none" xmlns="http://www.w3.org/2000/svg">
<path d="M107.205 1.86504C99.3141 5.31594 77.985 31.9367 59.7384 61.0219C38.7792 94.6675 18.8057 141.007 10.5455 175.762C0.682247 216.925 -2.52344 265.361 2.03838 305.167C7.46326 352.37 17.3265 381.701 44.3271 431.491L50.1216 441.969L45.1902 462.302C39.8888 484.117 34.8338 507.285 29.6555 533.784C27.8059 542.902 25.5868 553.503 24.7237 557.201C16.71 588.752 6.6002 638.293 5.98368 648.399C3.88758 684.51 24.4771 730.234 87.3555 828.951C92.1635 836.345 103.877 855.201 113.493 870.854C153.068 935.065 167.124 954.167 208.674 1000.38C230.989 1025.28 243.197 1036.25 261.812 1048.57C277.47 1058.92 288.198 1064.22 305.21 1069.77C346.637 1083.2 390.158 1083.45 431.582 1070.26C455.254 1062.75 464.379 1057.32 489.777 1035.75C507.038 1021.09 523.064 1004.45 536.875 986.703C547.722 973.024 574.353 933.337 593.712 902.281C600.74 891.067 616.272 866.91 628.23 848.67C678.534 772.013 703.808 724.933 713.796 689.688C722.427 659 721.564 647.909 706.151 585.548C700.112 560.774 693.084 531.688 690.493 520.845C688.027 509.999 683.219 490.031 679.891 476.597C676.563 463.041 674.22 451.704 674.838 451.333C683.465 445.419 703.317 428.658 707.508 423.726C734.754 391.685 754.729 332.034 750.412 295.309C748.069 275.836 747.456 272.509 745.853 271.275C743.51 269.179 738.085 272.509 730.808 280.519C727.357 284.218 724.275 287.295 723.907 287.295C723.535 287.295 723.167 284.091 723.167 280.148C723.167 271.275 719.221 243.546 715.767 228.14C709.479 199.424 700.975 172.681 687.042 137.556C664.478 80.4944 638.59 37.8524 612.944 16.0381C593.957 -0.229903 582.738 -2.81808 578.299 8.02752C576.205 12.834 572.133 30.8275 565.972 61.1453C560.547 87.6426 543.654 143.349 534.409 165.286C520.599 197.945 490.271 255.377 480.778 266.714L478.309 269.796L465.365 266.223C444.036 260.061 431.705 257.965 398.912 254.514C350.705 249.584 320.746 250.817 278.087 259.689C264.771 262.525 238.385 269.55 232.346 271.892C229.881 272.877 228.524 270.535 211.88 238C188.825 192.769 170.575 150.497 151.466 97.5021C141.233 69.4027 136.547 54.2438 131.988 34.6479C124.343 1.98844 120.026 -3.6808 107.205 1.86504ZM111.027 492.621C129.891 516.035 166.756 551.778 207.195 586.161C239.742 613.89 282.773 653.822 293.006 665.899L297.937 671.817L289.551 677.98C253.181 704.846 204.112 709.653 165.276 690.179C149.372 682.046 138.89 674.526 127.054 662.45C87.9727 622.766 76.6278 562.498 94.5061 491.265C95.8633 485.842 97.3432 481.035 97.7115 480.418C98.9459 478.448 101.289 480.541 111.027 492.621ZM630.573 499.275C637.727 528.484 640.066 563.855 636.37 587.763C634.027 602.925 627.862 622.027 620.712 636.323C604.068 669.475 575.093 692.521 538.6 701.642C517.025 707.065 481.269 704.352 460.311 695.848C454.514 693.506 433.68 681.923 430.965 679.582C429.857 678.597 465.242 644.21 495.696 616.972C527.504 588.503 585.081 531.442 612.204 501.371C621.206 491.387 626.628 486.336 627.122 487.321C627.617 488.061 629.097 493.484 630.573 499.275ZM567.08 793.457C565.355 803.441 559.435 818.722 550.313 836.962C545.134 847.44 540.325 856.803 539.586 857.792C538.723 859.145 537.615 858.531 534.409 854.833C530.215 850.15 521.216 843.741 520.231 844.726C519.859 845.098 518.996 849.165 518.379 853.725C510.86 905.363 498.284 930.75 471.653 948.25C459.817 956.015 435.528 967.846 423.075 971.913C383.622 984.978 335.047 985.472 302.005 973.024C283.018 965.999 255.033 949.978 241.468 938.392C233.826 931.984 222.481 915.469 214.713 899.445C208.303 886.506 202.509 865.43 203.004 857.175C203.372 851.629 202.015 849.41 198.192 849.287C197.33 849.287 194.247 851.874 191.168 855.078C188.085 858.16 185.371 860.624 185.125 860.256C183.523 858.531 170.207 833.267 166.139 824.022C159.605 809.478 154.303 790.13 156.891 790.13C157.386 790.13 167.247 793.951 178.837 798.635L199.672 807.013L205.96 822.298C214.1 842.017 224.578 862.598 231.852 873.444C240.36 885.766 254.784 903.515 256.509 903.515C257.744 903.515 265.88 876.648 275.745 839.675C277.225 834.129 278.95 829.568 279.441 829.568C279.935 829.568 284.498 830.431 289.429 831.416C324.442 838.935 386.953 838.812 431.831 831.17C438.733 830.063 444.653 829.323 445.021 829.691C445.638 830.308 463.022 877.633 467.585 891.19C469.31 896.241 471.035 900.679 471.284 901.051C472.393 902.159 483.86 888.48 490.885 878.124C499.393 865.308 509.503 844.109 515.791 825.379C518.628 817.365 521.093 810.589 521.339 810.217C522.202 809.478 565.846 789.145 566.957 789.023C567.448 788.896 567.574 790.993 567.08 793.457Z" fill="url(#paint0_linear_1_52)"/>
<path d="M322.349 899.94C316.678 911.526 311.621 921.261 311.253 921.51C310.264 922.123 295.223 899.2 289.061 887.863C286.718 883.551 284.498 880.098 284.127 880.098C283.141 880.098 267.237 913.373 266.252 917.317C265.757 919.659 266.252 921.632 267.977 923.851L270.565 927.056L272.908 921.755C275.496 915.964 278.456 912.882 282.524 911.648C284.621 911.031 286.469 912.265 291.526 917.811C294.977 921.632 300.77 929.148 304.348 934.571C309.65 942.831 310.881 944.061 311.993 942.459C318.032 932.479 332.087 912.76 333.813 911.648C335.538 910.663 336.773 911.158 340.224 914.484C344.909 919.045 361.925 943.199 361.925 945.295C361.925 947.882 363.773 946.652 366.855 941.968C376.966 926.684 390.036 912.143 393.855 912.143C396.692 912.143 403.103 919.291 410.748 931.245L418.884 944.061L425.667 933.464C435.9 916.949 440.708 910.909 443.419 910.909C444.776 910.909 449.09 914.236 453.161 918.428C462.405 927.918 462.654 926.316 454.887 906.348C449.461 892.178 444.404 882.194 442.062 880.715C441.448 880.347 439.228 883.425 437.008 887.618C429.735 902.159 417.159 920.893 415.679 919.659C414.816 918.919 409.268 909.556 403.226 898.709C397.061 887.863 391.884 878.99 391.513 878.868C391.144 878.868 387.816 884.536 384.117 891.439C374.869 909.061 364.39 925.822 363.156 925.082C361.802 924.219 352.8 910.541 342.938 893.903C338.253 886.384 334.185 879.853 333.69 879.607C333.196 879.236 328.142 888.48 322.349 899.94Z" fill="#9A0000"/>
<defs>
<linearGradient id="paint0_linear_1_52" x1="375.5" y1="0" x2="375.5" y2="1080" gradientUnits="userSpaceOnUse">
<stop offset="0.163462" stop-color="#120047"/>
<stop offset="0.504808" stop-color="#2800BA"/>
<stop offset="0.870192" stop-color="#9A0000"/>
</linearGradient>
</defs>
</svg>
